<?xml version="1.0" ?><!DOCTYPE svg  PUBLIC '-//W3C//DTD SVG 1.1//EN'  'http://www.w3.org/Graphics/SVG/1.1/DTD/svg11.dtd'><svg enable-background="new 0 0 512 512" height="512px" id="Layer_1" version="1.1" viewBox="0 0 512 512" width="512px" xml:space="preserve" xmlns="http://www.w3.org/2000/svg" xmlns:xlink="http://www.w3.org/1999/xlink"><g><path d="M266.25,257.999c1.906-0.624,3.844-1.218,5.781-1.749c-3.688-8.344-7.688-16.675-11.906-24.906   c-73.266,21.938-144.359,21.03-150.781,20.894c-0.062,1.481-0.078,2.981-0.078,4.481c0,37.67,14.296,72.081,37.718,98.094   C150.312,349.125,190.578,282.45,266.25,257.999z M248,208.78c-24.297-43.218-50.516-79.549-54.391-84.855   c-41.031,19.356-71.734,57.2-81.234,102.731C118.922,226.749,179.375,227,248,208.78z M353.25,146.969   c-25.906-23-59.984-36.969-97.266-36.969c-11.828,0-23.344,1.406-34.375,4.062c4.062,5.45,30.688,41.719,54.734,85.906   C328.516,180.426,350.625,150.719,353.25,146.969z M287.625,221.781c3.422,6.999,6.703,14.093,9.734,21.25   c1.094,2.531,2.141,5.062,3.172,7.581c48.812-6.144,97.328,3.688,102.156,4.713c-0.312-34.625-12.703-66.438-33.125-91.388   C366.469,168.112,341.875,199.625,287.625,221.781z M309.453,273.719c19.203,52.75,27.016,95.706,28.5,104.625   c32.938-22.25,56.359-57.519,62.906-98.33C395.828,278.425,355.453,266.374,309.453,273.719z M256-0.5   C114.609-0.5,0,115.112,0,256.5c0,141.388,114.609,256,256,256c141.391,0,256-114.612,256-256C512,115.112,397.391-0.5,256-0.5z    M255.984,428.263c-94.719,0-171.766-77.062-171.766-171.775c0-94.719,77.047-171.769,171.766-171.769   c94.719,0,171.781,77.05,171.781,171.769C427.766,351.199,350.703,428.263,255.984,428.263z M281.031,280.844   c-82.75,28.831-112.453,86.219-115.109,91.625c24.875,19.395,56.156,30.956,90.062,30.956c20.329,0,39.704-4.144,57.328-11.663   C311.109,378.889,302.609,334.05,282,280.5C281.688,280.625,281.344,280.719,281.031,280.844z" fill="#1D1D1B"/></g></svg>